<svg width="18" height="18" viewBox="0 0 18 18" fill="none" xmlns="http://www.w3.org/2000/svg">
<path d="M15.4583 0.666672H2.54163C1.50829 0.666672 0.666626 1.50834 0.666626 2.54167V15.4583C0.666626 16.4917 1.50829 17.3333 2.54163 17.3333H15.4583C16.4916 17.3333 17.3333 16.4917 17.3333 15.4583V2.54167C17.3333 1.50834 16.4916 0.666672 15.4583 0.666672ZM2.54163 1.91667H15.4583C15.8025 1.91667 16.0833 2.19751 16.0833 2.54167V10.605L12.8683 7.39001C12.7516 7.27334 12.5933 7.20667 12.4266 7.20667H12.4241C12.2575 7.20667 12.0966 7.27334 11.9808 7.39334L8.38329 11.0467L6.87246 9.54167C6.75579 9.42501 6.59746 9.35834 6.43079 9.35834C6.26996 9.33334 6.10163 9.42501 5.98496 9.54751L1.91663 13.7017V2.54167C1.91663 2.19751 2.19746 1.91667 2.54163 1.91667ZM1.92163 15.4833L6.43663 10.8717L11.6716 16.0833H2.54163C2.20663 16.0833 1.93579 15.815 1.92163 15.4833ZM15.4583 16.0833H13.4416L9.26913 11.9275L12.4291 8.71917L16.0833 12.3725V15.4583C16.0833 15.8025 15.8025 16.0833 15.4583 16.0833Z" fill="#1D9BF0"/>
<path d="M6.38998 7.20918C7.09967 7.20918 7.67498 6.63386 7.67498 5.92418C7.67498 5.21449 7.09967 4.63918 6.38998 4.63918C5.68029 4.63918 5.10498 5.21449 5.10498 5.92418C5.10498 6.63386 5.68029 7.20918 6.38998 7.20918Z" fill="#1D9BF0"/>
</svg>
